<?xml version="1.0" encoding="utf-8"?>
<!-- Generator: Adobe Illustrator 16.0.4, SVG Export Plug-In . SVG Version: 6.00 Build 0)  -->
<!DOCTYPE svg PUBLIC "-//W3C//DTD SVG 1.1//EN" "http://www.w3.org/Graphics/SVG/1.1/DTD/svg11.dtd">
<svg version="1.1" id="Layer_1" xmlns="http://www.w3.org/2000/svg" xmlns:xlink="http://www.w3.org/1999/xlink" x="0px" y="0px"
	 width="432px" height="280px" viewBox="0 0 432 280" enable-background="new 0 0 432 280" xml:space="preserve">
<text transform="matrix(1 0 0 1 60.3535 184.8345)" fill="#3C3A32" font-family="'TitilliumWeb-Bold'" font-size="22.2665" letter-spacing="6">web studio</text>
<path fill="#3C3A32" d="M379.98,89h-12.438H362v6.461v11.927c-2-0.188-3.156-0.278-4.35-0.278c-8.219,0-14.651,2.66-18.983,7.919
	c-1.154,1.401-2.128,3.032-2.954,4.799c-3.914-8.23-11.754-12.718-23.16-12.718c-5.885,0-14.156,1.479-19.846,8.384l-5.934-1.954
	l-0.74-0.447c-2.389-1.579-5.187-2.991-8.093-4.048c-3.99-1.459-7.835-2.208-11.421-2.208c-2.389,0-4.709,0.334-6.893,0.985
	c-5.127,1.546-9.012,5.201-11.73,10.659c-0.492-1.151-1.012-2.252-1.639-3.23c-2.395-3.715-7.412-8.254-17.693-8.254
	c-2.266,0-4.605,0.004-7.016,1.004h-4.586H205h-0.318l-0.055-3.353c0.309-3.673-0.609-9.781-9.871-11.505
	c-1.135-0.203-2.191-0.29-3.174-0.29l-0.907,0.11c-0.559,0.045-1.087,0.14-1.587,0.244c-0.875,0.183-1.735,0.486-2.551,0.909
	c-0.484,0.248-0.969,0.514-1.354,0.823c-0.703,0.538-1.322,1.202-2.092,2.26l-0.635,0.954c-0.696,1.283-1.062,2.547-1.352,4.082
	c-0.137,0.73-0.105,1.987-0.105,1.987v3.872v0.469v2.921c-3-2.4-7.442-4.372-14.28-4.372c-1.828,0-3.72,0.241-5.72,0.717V95.461V89
	h-6.132h-12.435H137v6.461v16.014c-3-2.402-7.609-4.479-14.447-4.479c-2.266,0-4.789,0.004-7.199,1.004h-4.585H98.424h-0.317h-5.482
	h-0.317H79.871H74v6.028v30.317c-1,0.188-2.02,0.271-3.075,0.271c-0.115,0-0.335,0-0.434-0.01c-0.174-0.965-0.491-2.808-0.491-6.073
	v-24.505V108h-5.539H52.02H46v6.028v24.325c0,9.549,1.49,16.398,4.339,20.944c3.347,5.341,9.429,7.933,17.967,7.933
	c2.174,0,4.503-0.231,6.905-1.231h4.751h12.345h0.317h5.482h0.317h12.436H117v-5.557v-30.362c1-0.156,1.575-0.226,2.481-0.226
	c0.227,0,0.082,0.018,0.218,0.027c0.249,0.76,0.301,2.443,0.301,5.771v24.79V166h6.27h10.364h2.077h3.723h2.078h10.356H161v-5.557
	v-30.391c1-0.128,1.596-0.197,2.485-0.197c0.228,0,0.081,0.018,0.216,0.027c0.25,0.75,0.299,2.419,0.299,5.681v24.88V166h6.28
	h10.372h2.069h3.73h2.069h10.297h0.068h5.732h0.068h12.365H223v-5.557v-30.362c1-0.156,1.672-0.226,2.58-0.226
	c0.225,0,0.531,0.018,0.666,0.027c0.25,0.76,0.754,2.443,0.754,5.771v24.79V166h4.467c0.324,3,1.615,6.693,4.102,9.316
	c3.566,3.737,8.906,6.928,16.355,9.642c5.248,1.919,10.129,2.916,14.504,2.916c1.916,0,3.785-0.172,5.537-0.533
	c6.686-1.397,11.543-5.745,14.043-12.602c2.492-6.836,2.184-12.561-0.93-17.051c-1.18-1.7-2.834-3.285-5.025-4.801
	c0.449-0.101,0.879-0.203,1.301-0.332c2.258-0.68,4.238-1.981,6.045-3.629c0.988,4.383,2.576,8.024,4.932,10.813
	c4.297,5.053,10.908,7.613,19.656,7.613c6.193,0,13.15-0.93,20.666-2.759l4.525-1.093l-0.09-4.653l-0.014-0.655
	c0.16,0.242,0.264,0.552,0.42,0.784c3.795,5.562,10.152,8.255,18.91,8.255c2.256,0,4.645-0.231,7.215-1.231h4.014h12.348H386v-5.557
	V95.461V89H379.98z M272.428,130.527c-0.258,0.708-0.484,1.136-0.635,1.393c-0.373-0.034-1.006-0.17-2-0.521
	c-0.994-0.357-1.566-0.689-1.873-0.889c0.039-0.298,0.143-0.784,0.395-1.469c0.254-0.701,0.484-1.134,0.648-1.404
	c0.408,0.053,1.031,0.182,2,0.521c0.994,0.375,1.566,0.691,1.873,0.907C272.797,129.363,272.682,129.832,272.428,130.527z
	 M362,144.328c-1,0.198-2.562,0.295-3.71,0.295c-0.375,0-0.571-0.052-0.571-0.052c-0.057-0.271-0.883-2.286-0.883-7.761
	c0-6.18,1.359-7.81,1.377-7.81c0.062,0,0.135,0,0.197,0c1.115,0,2.59,0.561,3.59,0.668V144.328z"/>
<g>
	<path fill="#95E000" d="M198.832,103.176c0.234-2.756-0.588-4.727-5.135-5.572c-0.756-0.136-1.467-0.185-2.129-0.185
		c-0.766,0.122-1.029,0.181-1.285,0.241c-0.395,0.081-0.757,0.219-1.104,0.392c-0.71,0.444-0.953,0.736-1.239,1.135
		c-0.786,1.231-1.063,2.057-1.239,2.994c-0.098,0.507-0.182,0.806-0.204,1.274L186.452,108h12.435L198.832,103.176z"/>
	<g>
		<path fill="#95E000" d="M80,114v34.749l-1.273,0.368c-2.41,0.867-5.01,1.298-7.735,1.298c-2.849,0-4.887-0.837-5.635-2.509
			C64.618,146.24,64,143.11,64,138.533V114H52v24.354c0,8.352,1.127,14.31,3.356,17.866c2.229,3.557,6.581,5.334,13.018,5.334
			c3.275,0,7.625-1.235,11.625-3.71V160h13.076l-0.77-46H80z"/>
		<path fill="#95E000" d="M186,114v6.5c2,3.998,2.296,8.835,2.296,14.786c0,0,1.707,21.312-5.688,17.423
			c1.352-1.673,0.44-17.423,0.44-17.423c0-7.617-1.535-13.245-3.885-16.893c-2.357-3.653-6.543-5.482-12.73-5.482
			c-3.398,0-7.434,1.117-11.434,3.346V95h-13v25.479c2,3.997,2.295,8.838,2.295,14.807c0,0,0.834,21.271-5.308,17.423
			c0.666-1.954,0.054-17.423,0.054-17.423c0-7.617-1.536-13.245-3.885-16.893c-2.358-3.653-6.495-5.482-12.684-5.482
			c-3.525,0-8.473,1.117-11.473,4.487V114H98.424l-0.77,46h13.975l-0.77-34.499l1.117-0.257c2.35-0.871,4.797-1.245,7.335-1.245
			c2.781,0,4.638,0.971,5.567,2.862c0.93,1.884,1.391,4.602,1.391,8.557L125.498,160h9.224h3.989h3.723h6.067h7.138l-0.771-34.679
			l1.21-0.267c2.416-0.739,4.826-1.055,7.243-1.055c2.78,0,4.64,0.971,5.567,2.862c0.93,1.884,1.392,4.564,1.392,8.467L169.508,160
			h9.98h3.233h3.73h6.815h6.389l-0.77-46H186z"/>
		<path fill="#95E000" d="M380.75,160l-0.77-65H368v19.209l-1.994-0.36c-3.529-0.618-6.388-0.938-8.368-0.938
			c-6.445,0-11.263,1.933-14.45,5.802c-2.631,3.186-5.486,7.913-5.486,14.205c0,0.128-0.061,2.083-0.061,2.083h-3.777l-0.09-0.969
			c0-13.99-7.744-21.053-21.236-21.053c-5.822,0-10.328,1.566-13.672,4.589l1.496,0.477l5.682,1.862l-2.051,5.617l-3.414,9.335
			l-2.152,5.915l-4.484-2.065c-0.498,1.347-1.098,2.485-1.686,3.651c0.488,6.034,1.953,10.621,4.502,13.622
			c3.156,3.72,8.23,5.573,15.229,5.573c5.746,0,12.186-0.86,19.303-2.593l-0.184-9.191l-2.6,0.277
			c-4.518,0.368-9.652,0.559-15.41,0.559c-2.723,0-4.812-0.891-6.262-2.165c-1.459-1.271-2.215-3.441-2.275-6.441h27.285h0.012
			h5.779c0.459,6,2.598,10.438,4.662,13.478c2.654,3.896,7.543,5.958,14.291,5.958c3.154,0,6.412-1.104,11.412-3.147V160H380.75z
			 M304.566,134c0.062-4,0.697-6.111,1.906-7.617c1.209-1.53,3.279-2.268,6.215-2.268c2.939,0,5,0.703,6.18,2.16
			c1.172,1.457,1.76,3.725,1.76,7.725H304.566z M366.517,149.312c-2.848,0.742-5.655,1.113-8.222,1.113
			c-2.568,0-4.454-1.023-5.567-3.06c-1.109-2.048-1.694-5.483-1.694-10.303c0-8.918,2.681-13.373,7.692-13.373
			c2.66,0,5.274,0.312,9.274,0.93v24.408L366.517,149.312z"/>
		<path fill="#95E000" d="M295.052,132.449l4.117-11.051l-14.1-1.9c0,0-0.432-0.662-2.104-1.845
			c-2.23-1.578-4.594-2.668-7.086-3.574c-1.559-0.565-3.053-0.975-4.502-1.284c-0.471-0.101-0.914-0.135-1.367-0.211
			c-0.982-0.153-1.941-0.257-2.871-0.288c-0.227-0.007-0.477-0.076-0.701-0.076c-0.205,0-0.385,0.076-0.59,0.086
			c-1.611,0.049-3.182,0.219-4.641,0.656c-4.252,1.284-7.4,4.698-9.428,10.243c-2.029,5.56-1.586,10.479,1.332,14.765l-1.232,0.931
			c-2.719,2.047-4.289,3.643-4.715,4.806c-1.088,2.967-0.824,5.576,0.793,7.804c-6.955,1.752-7.223-4.979-6.586-8.432
			c0.098-0.316,0.113-0.594,0.232-0.924c0.645-1.755,1.922-3.448,4.127-5.389c-0.748-2.165-1.111-4.428-1.098-6.78
			c0-0.003-0.014-0.003-0.014-0.01c-0.416-5.171-1.512-9.188-3.324-12c-2.357-3.653-6.564-5.482-12.754-5.482
			c-3.525,0-7.542,1.624-11.542,4.102V114h-12.394l-0.77,46h14.678l-1.543-34.708l1.119-0.362c2.35-0.871,4.795-1.298,7.336-1.298
			c2.779,0,4.637,0.944,5.566,2.836c0.93,1.884,1.389,4.798,1.389,8.753L231.63,160h6.162c-1.48,5-0.883,8.081,1.902,11.019
			c2.887,3.02,7.594,5.739,14.133,8.126c2.064,0.753,4.006,1.276,5.887,1.696c0.521,0.118,1.035,0.209,1.539,0.3
			c1.498,0.267,2.924,0.418,4.301,0.463c0.25,0.011,0.545,0.083,0.793,0.083c0.105,0,0.188-0.027,0.285-0.027
			c1.422-0.018,2.781-0.135,4.066-0.402c4.705-0.985,7.969-3.958,9.781-8.921c1.812-4.972,1.738-8.889-0.248-11.755
			c-1.988-2.859-6.627-5.664-13.93-8.398c-3.65-1.391-5.895-2.446-6.762-3.157c-0.854-0.712-1.104-1.541-0.756-2.498
			c0.348-0.965,1.086-2.097,2.221-3.395c0.967,0.618,2.113,1.17,3.445,1.659c1.918,0.704,3.678,1.19,5.363,1.575
			c0.49,0.111,0.951,0.188,1.42,0.271c1.209,0.219,2.357,0.354,3.438,0.393c0.256,0.018,0.574,0.097,0.83,0.097
			c0.143,0,0.25-0.052,0.393-0.052c1.344-0.027,2.607-0.163,3.717-0.5c3.777-1.131,6.725-4.591,8.846-10.406
			c0.727-1.981,0.809-4.188,0.25-6.635L295.052,132.449z M261.64,161.951c3.355,1.283,5.477,2.342,6.359,3.157
			c0.893,0.822,1.043,2.006,0.471,3.581c-0.287,0.773-0.785,1.336-1.43,1.749c-0.209,0.128-0.529,0.163-0.775,0.26
			c-0.516,0.188-1.059,0.361-1.738,0.386c-0.113,0.007-0.176,0.065-0.289,0.065c-0.482,0-1.088-0.128-1.639-0.201
			c-0.354-0.049-0.662-0.052-1.043-0.132c-1.162-0.243-2.43-0.594-3.875-1.124c-6.133-2.245-8.74-4.615-7.826-7.113
			c0.635-1.749,2.025-3.116,4.162-4.112L261.64,161.951z M276.938,131.998c-0.35,0.961-0.793,1.714-1.295,2.37
			c-0.135,0.188-0.293,0.347-0.443,0.517c-0.416,0.441-0.879,0.799-1.377,1.069c-0.164,0.09-0.316,0.204-0.49,0.274
			c-0.625,0.256-1.307,0.416-2.062,0.416c-0.045,0-0.098-0.031-0.143-0.031c-0.969-0.014-2.031-0.205-3.201-0.642
			c-4.451-1.617-5.895-4.563-4.328-8.839c0.344-0.957,0.793-1.714,1.289-2.373c0.137-0.188,0.287-0.347,0.445-0.514
			c0.416-0.444,0.877-0.805,1.375-1.082c0.168-0.08,0.309-0.194,0.484-0.261c0.635-0.26,1.307-0.42,2.061-0.42
			c0.047,0,0.1,0.035,0.145,0.035c0.975,0.017,2.039,0.208,3.211,0.642C277.052,124.784,278.493,127.727,276.938,131.998z"/>
	</g>
</g>
</svg>
